<?xml version="1.0" encoding="utf-8"?>
<!-- Generator: Adobe Illustrator 21.0.2, SVG Export Plug-In . SVG Version: 6.00 Build 0)  -->
<svg version="1.1" id="Layer_1" xmlns="http://www.w3.org/2000/svg" xmlns:xlink="http://www.w3.org/1999/xlink" x="0px" y="0px"
	 viewBox="0 0 18.2 27" style="enable-background:new 0 0 18.2 27;" xml:space="preserve">
<style type="text/css">
	.st0{fill:#FFFFFF;}
	.st1{fill:none;}
</style>
<g>
	<path class="st0" d="M6.4,19.7c0.6,1,1.2,2.4,1.5,3.6c0.2,0.6,0.3,1.2,0.3,1.6c0,0.4,0,0.9-0.1,1.3l2.2-3.5
		c0.2-0.3,0.3-0.5,0.5-0.8l1.2-1.8c2.3-3.6-0.2-7.7-0.5-8.2v0c0,0-3.5-5.9-3.6-5.9C7.4,5.1,7,4.3,6.8,3.6C6.4,2.6,6.7,1.8,7,1.4
		C7.3,1,7.6,0.8,7.6,0.8C5.4,1.3,5,3.4,5,3.4h0C4.1,6,5.6,8.8,6,9.4l0.9,1.4l2,3.1c0.1,0.1,0.2,0.3,0.3,0.5c0.5,0.9,0.8,1.9,0.8,3
		c0,0.6-0.1,1.2-0.3,1.7l-0.3,1c0,0,0-0.3-0.1-0.5c0-0.4-0.1-0.7-0.2-1.1c-0.1-0.4-0.2-0.8-0.4-1.1c0,0,0-0.1,0-0.1
		c0-0.1-0.1-0.1-0.1-0.2c0-0.1-0.1-0.1-0.1-0.2c0,0,0-0.1,0-0.1c0-0.1-0.1-0.2-0.1-0.2l-3.3-5.2c0-0.1-0.4-0.6-0.4-0.6
		C3.9,9.5,3.5,8.3,3.3,7.3C3.2,6.9,3.3,6.4,3.5,6c0.1-0.1,0.1-0.2,0.1-0.2C2.5,6.6,2.2,7.5,2.2,7.5c0,0.1-0.1,0.1-0.1,0.2
		c-1.3,2.7,0.6,6,1,6.6C3.1,14.3,5.8,18.6,6.4,19.7"/>
	<path class="st0" d="M14.9,17.9l0.1-0.2l0.6-0.9l0.5-0.7c0.9-1.7,0.9-3,0-4.3l-0.9-1.2c0,0-0.8-1.1-1-1.7c-0.3-0.7-0.2-1.2-0.1-1.6
		c0,0,0,0,0-0.1c0,0,0,0,0,0c0.3-0.6,1-0.6,1-0.6c-1.1-0.4-2.6,0-3,1.5c-0.5,1.7,0.1,3.1,1.2,4.7l0.7,1c0.1,0.1,0.1,0.3,0.2,0.4
		c1,2.4-1.1,6.6-1.1,6.6l0-0.1c0,0,0,0,0,0l0-0.1c0,0,0-0.1,0.1-0.1l0.2-0.2c0,0,0-0.1,0.1-0.1l0-0.1c0,0,0-0.1,0.1-0.1l0.1-0.2
		c0-0.1,0.1-0.1,0.1-0.2l0.4-0.7l0,0l0.6-0.9C14.8,18,14.9,17.9,14.9,17.9"/>
</g>
<rect class="st1" width="67" height="27"/>
</svg>
